<?xml version="1.0" standalone="no"?>
<!DOCTYPE svg PUBLIC "-//W3C//DTD SVG 20010904//EN"
 "http://www.w3.org/TR/2001/REC-SVG-20010904/DTD/svg10.dtd">
<svg version="1.0" xmlns="http://www.w3.org/2000/svg"
 width="656.000000pt" height="656.000000pt" viewBox="0 0 656.000000 656.000000"
 preserveAspectRatio="xMidYMid meet">
<metadata>
Created by potrace 1.14, written by Peter Selinger 2001-2017
</metadata>
<g transform="translate(0.000000,656.000000) scale(0.100000,-0.100000)"
fill="#000000" stroke="none">
<path d="M3105 6540 c-88 -10 -196 -25 -240 -35 -44 -9 -107 -22 -140 -29
-115 -25 -382 -106 -481 -147 -185 -77 -224 -96 -383 -185 -49 -27 -323 -213
-331 -224 -3 -3 -35 -29 -71 -56 -176 -134 -380 -354 -471 -507 -78 -131 -153
-372 -168 -542 -21 -221 20 -433 118 -615 75 -138 85 -155 97 -165 6 -5 24
-27 39 -48 99 -135 339 -335 464 -386 17 -7 32 -17 32 -21 0 -4 24 -17 53 -29
28 -12 63 -28 77 -35 14 -8 51 -22 82 -31 32 -9 64 -22 70 -29 7 -7 20 -15 28
-19 31 -16 60 -34 77 -50 25 -22 125 -56 213 -73 68 -13 78 -18 109 -55 19
-23 48 -66 64 -98 29 -54 30 -61 31 -191 1 -133 0 -136 -32 -205 -42 -89 -114
-158 -186 -179 -72 -21 -144 -1 -184 52 -15 20 -34 45 -43 54 -8 10 -21 41
-28 70 -8 29 -17 58 -22 63 -4 6 -9 28 -11 50 -3 38 -5 40 -40 43 -32 3 -38 7
-38 27 0 22 -3 23 -72 22 l-72 -2 3 -48 c3 -56 32 -161 55 -203 9 -16 28 -49
42 -74 14 -25 40 -61 59 -80 l35 -36 -33 -2 c-79 -6 -275 -55 -287 -72 -3 -4
-27 -18 -55 -32 -111 -54 -143 -74 -205 -127 -92 -79 -141 -128 -185 -186 -20
-27 -41 -52 -44 -55 -11 -8 -78 -132 -86 -160 -4 -14 -18 -48 -31 -76 -32 -68
-48 -216 -32 -299 12 -68 30 -144 51 -225 13 -49 73 -192 97 -230 5 -8 18 -31
28 -51 54 -104 289 -353 442 -468 188 -142 445 -278 647 -342 34 -11 65 -23
67 -28 3 -5 22 -12 42 -16 20 -3 62 -18 93 -32 54 -25 174 -59 311 -89 132
-28 410 -39 677 -25 136 6 280 18 318 26 286 58 408 88 545 135 30 11 75 24
100 31 25 6 63 20 85 31 22 10 60 26 85 35 25 8 51 20 58 26 8 6 37 19 64 29
28 10 58 24 67 31 9 8 37 24 63 36 27 13 50 27 54 32 3 5 20 16 37 24 35 16
65 34 83 51 7 6 36 26 66 45 140 89 345 274 411 369 34 50 127 209 127 217 0
3 8 17 18 31 29 42 81 216 103 346 36 207 14 516 -48 696 -14 41 -35 83 -46
93 -11 10 -31 39 -44 65 -43 85 -59 110 -125 199 -75 100 -158 187 -237 247
l-54 40 7 105 c3 57 6 339 6 627 l0 523 48 23 c129 63 186 106 339 254 139
135 250 323 273 464 28 164 -10 412 -83 545 -9 17 -26 50 -37 75 -47 99 -66
133 -97 170 -18 21 -33 42 -33 47 0 18 -220 233 -315 308 -21 17 -52 41 -69
56 -17 14 -58 42 -91 63 -33 21 -73 47 -88 58 -45 31 -269 144 -365 184 -250
104 -461 168 -655 198 -138 22 -583 20 -802 -4z m38 -63 c-77 -28 -18 -37 128
-19 258 31 550 25 745 -17 99 -21 298 -76 329 -91 11 -5 71 -27 133 -49 115
-41 351 -152 417 -197 20 -13 53 -33 73 -44 20 -11 57 -36 82 -55 25 -19 63
-47 85 -61 22 -15 57 -44 78 -65 21 -21 52 -48 70 -61 18 -12 42 -34 53 -48
12 -14 39 -43 60 -65 22 -22 48 -53 59 -69 11 -16 29 -40 41 -55 25 -31 158
-304 168 -343 4 -17 2 -28 -4 -28 -5 0 -10 -12 -10 -26 0 -14 -4 -23 -10 -19
-6 4 -10 -6 -10 -22 0 -17 -8 -34 -19 -42 -13 -10 -21 -32 -26 -70 -5 -41 -13
-62 -28 -74 -62 -50 -113 -87 -119 -87 -5 0 -8 18 -8 40 0 22 -4 40 -10 40 -5
0 -10 -12 -10 -27 0 -31 -13 -56 -26 -52 -5 1 -14 -15 -19 -35 -12 -42 -35
-60 -111 -86 -31 -11 -62 -24 -68 -28 -6 -5 -31 -14 -56 -21 -25 -7 -52 -14
-60 -17 -12 -3 -14 5 -12 41 3 36 1 45 -12 45 -9 0 -16 -8 -16 -17 0 -13 -3
-14 -12 -5 -20 20 -26 14 -33 -28 -9 -52 -25 -62 -25 -15 0 46 -24 43 -28 -3
-6 -56 -22 -34 -22 28 0 33 -4 60 -9 60 -10 0 -21 -49 -21 -91 l0 -29 -57 6
c-196 19 -267 38 -278 75 -5 15 -9 16 -24 7 -24 -15 -51 -4 -51 22 0 11 -4 20
-10 20 -5 0 -10 -7 -10 -15 0 -8 -4 -15 -9 -15 -5 0 -12 24 -16 53 -10 74 -19
81 -25 17 -4 -31 -9 -48 -13 -40 -3 8 -12 29 -19 45 l-12 30 -5 -40 c-4 -38
-4 -37 -15 25 -6 36 -15 65 -21 65 -5 0 -11 -24 -13 -53 -3 -53 -3 -53 -25
-39 -12 8 -66 37 -119 66 -54 28 -131 73 -172 101 -41 27 -78 50 -82 50 -3 0
-29 16 -55 35 -27 19 -51 35 -53 35 -2 0 -39 24 -81 53 -42 28 -84 57 -93 62
-10 6 -56 35 -103 66 -48 31 -96 60 -108 64 -11 3 -21 11 -21 16 0 5 -6 9 -14
9 -7 0 -25 9 -39 20 -13 11 -78 47 -143 81 -66 34 -135 70 -154 80 -19 11 -40
19 -48 19 -8 0 -22 10 -33 23 -14 17 -21 19 -27 9 -7 -10 -11 -10 -22 3 -7 8
-25 15 -40 15 -15 0 -33 7 -41 16 -8 10 -21 13 -37 9 -15 -4 -28 -1 -33 6 -4
7 -16 13 -26 14 -10 1 -25 4 -33 6 -8 2 -14 -2 -13 -8 4 -17 -3 -16 -33 4 -22
14 -27 14 -35 2 -7 -11 -12 -12 -29 -1 -27 16 -43 15 -36 -3 3 -8 2 -15 -2
-15 -4 0 -60 -6 -123 -14 -112 -14 -314 -72 -349 -101 -33 -27 -42 -28 -35 -6
11 34 -21 26 -33 -9 -7 -19 -16 -28 -25 -24 -8 3 -20 -2 -27 -11 -7 -8 -21
-15 -31 -15 -10 0 -21 -9 -24 -20 -3 -11 -14 -20 -23 -20 -10 0 -25 -12 -34
-27 -10 -16 -18 -22 -18 -15 0 29 -32 9 -50 -33 -19 -45 -37 -63 -25 -25 12
39 -16 20 -36 -25 -11 -24 -25 -47 -31 -51 -7 -4 -8 -3 -4 5 4 7 5 19 2 28
-10 24 -33 -1 -41 -45 -4 -20 -17 -50 -29 -67 -38 -51 -93 -149 -100 -176 -4
-17 -12 -26 -23 -25 -10 0 -26 -14 -37 -34 -13 -23 -27 -34 -37 -32 -30 6 -50
-72 -59 -229 l-8 -144 2 153 c1 83 -2 152 -6 152 -22 0 -32 -63 -32 -200 0
-128 3 -152 23 -205 28 -71 41 -89 41 -54 l1 24 14 -27 c9 -15 44 -48 79 -73
39 -28 68 -57 74 -74 6 -16 24 -48 41 -71 17 -24 31 -51 31 -60 0 -10 7 -24
16 -31 9 -7 31 -37 50 -66 19 -29 38 -53 44 -53 5 0 10 -7 10 -15 0 -8 -6 -12
-14 -9 -11 4 -14 -6 -12 -48 l1 -53 -40 3 c-27 2 -46 11 -57 25 -14 17 -20 19
-26 9 -7 -10 -11 -10 -22 3 -10 12 -15 13 -21 3 -6 -9 -23 4 -61 45 -29 31
-57 57 -63 57 -5 0 -18 10 -28 23 -64 81 -84 108 -99 133 -10 16 -31 49 -48
74 -35 53 -120 225 -120 243 0 7 -8 28 -19 47 -10 20 -24 60 -31 90 -13 58 -3
116 35 219 17 48 16 55 -8 45 -13 -5 -35 -50 -53 -113 -3 -8 -7 -12 -9 -9 -6
6 46 161 56 168 11 8 29 58 29 82 0 35 -28 2 -61 -70 -16 -36 -32 -63 -35 -59
-3 3 1 16 9 29 8 12 22 47 32 76 9 28 20 52 24 52 11 0 44 100 36 108 -4 4
-17 -6 -31 -23 -20 -25 -22 -26 -17 -7 3 12 9 22 14 22 5 0 9 4 9 10 0 5 14
39 31 75 18 36 29 68 26 72 -15 14 -35 -11 -82 -102 -27 -53 -53 -99 -57 -101
-7 -5 63 157 72 166 18 17 60 124 52 132 -11 11 -57 -53 -86 -120 -11 -23 -21
-41 -23 -39 -5 6 39 111 51 122 6 6 20 24 30 40 11 17 27 39 37 50 10 11 52
60 94 109 42 48 97 106 123 128 26 22 54 47 62 56 8 10 31 29 50 42 19 14 42
32 51 40 32 28 70 59 102 82 18 12 37 27 43 33 28 25 205 143 244 163 14 7 54
30 90 52 36 22 72 43 80 46 8 4 42 19 76 35 33 16 63 29 67 29 4 0 30 11 59
24 46 21 224 81 358 121 87 26 256 65 350 81 52 9 97 18 99 20 2 2 18 4 35 3
l31 -1 -32 -11z m-550 -1131 c40 -8 92 -18 116 -21 48 -8 87 -22 171 -62 58
-28 267 -150 287 -167 6 -6 24 -21 40 -33 15 -12 44 -36 63 -53 19 -16 38 -30
43 -30 4 0 22 -14 40 -31 17 -17 52 -48 77 -68 53 -42 210 -201 210 -211 0 -4
36 -51 79 -103 86 -104 189 -193 345 -297 243 -161 448 -230 683 -230 l118 0
0 -378 0 -378 -21 132 c-12 73 -27 147 -32 165 -6 19 -14 55 -18 82 -6 44 -8
47 -35 47 -22 0 -29 5 -29 20 0 18 -7 20 -81 20 -71 0 -80 -2 -75 -16 4 -9 0
-44 -8 -78 -24 -100 -45 -208 -52 -263 -4 -29 -10 -53 -14 -53 -4 0 -16 -45
-25 -100 -18 -97 -19 -100 -45 -100 -47 0 -59 19 -75 115 -8 50 -20 108 -25
130 -14 55 -60 270 -70 325 -18 105 -41 220 -56 285 -9 39 -21 96 -26 128 -11
56 -11 57 -44 57 -26 0 -33 4 -36 23 -3 21 -7 22 -78 18 -41 -2 -76 -4 -77 -5
-4 -3 15 -103 33 -176 8 -36 21 -99 29 -140 19 -110 43 -226 60 -300 9 -36 22
-99 29 -140 8 -41 19 -93 24 -115 11 -39 17 -68 29 -132 5 -30 3 -33 -19 -33
-23 0 -26 5 -37 73 -7 39 -15 79 -18 87 -3 8 -13 60 -24 115 -10 55 -26 136
-34 180 -26 132 -45 235 -59 330 -8 50 -20 118 -27 152 -12 61 -13 62 -48 65
-28 2 -36 7 -36 23 0 18 -6 20 -50 17 -27 -2 -53 -7 -57 -11 -5 -4 -21 -59
-38 -123 -16 -63 -34 -126 -40 -139 -6 -13 -19 -67 -29 -119 -28 -140 -70
-311 -86 -345 -8 -16 -21 -66 -30 -110 -9 -44 -23 -98 -30 -120 -7 -22 -18
-71 -25 -110 -6 -38 -22 -101 -35 -140 -13 -38 -26 -88 -30 -110 -4 -22 -15
-69 -25 -105 -10 -36 -26 -101 -35 -145 -9 -44 -22 -97 -28 -119 -10 -35 -12
-36 -19 -16 -7 18 -14 21 -39 18 -22 -3 -29 -1 -25 9 4 10 -27 13 -164 13
l-170 0 0 368 c0 202 -3 566 -7 810 l-6 442 -34 0 c-29 0 -33 3 -33 25 0 24
-2 25 -63 25 l-64 0 -6 -371 c-4 -205 -9 -374 -12 -377 -11 -11 -165 28 -229
58 -36 16 -69 30 -74 30 -13 0 -140 67 -167 88 -19 14 -66 45 -135 87 -9 6
-38 28 -64 51 l-48 41 12 44 c23 84 90 156 169 180 38 11 47 10 77 -6 31 -17
41 -32 85 -130 5 -11 10 -42 11 -70 3 -48 4 -50 34 -53 22 -2 34 -9 37 -23 5
-18 13 -20 74 -17 l68 3 -3 70 c-2 39 -9 80 -15 91 -7 12 -24 43 -39 70 -33
63 -109 141 -153 160 -18 7 -36 18 -40 24 -3 5 -31 22 -62 36 -48 23 -64 26
-127 21 -39 -2 -90 -13 -113 -24 -55 -25 -179 -132 -187 -160 -9 -32 -17 -29
-51 20 -90 126 -190 363 -210 500 -13 86 43 282 106 373 70 100 196 213 314
280 48 28 168 84 179 84 7 0 16 4 22 9 8 8 115 35 174 44 61 10 217 6 283 -7z
m-1104 -427 c-14 -41 -30 -61 -23 -28 7 29 26 70 31 66 2 -2 -2 -19 -8 -38z
m-73 -75 c-8 -33 -17 -72 -19 -89 -4 -29 -4 -29 -6 4 -1 35 28 155 36 147 2
-2 -3 -30 -11 -62z m2443 -1409 c12 -77 23 -150 25 -162 5 -32 -22 -30 -30 2
-6 23 -11 25 -63 25 -80 0 -82 3 -59 85 10 39 30 124 44 190 38 186 31 197 83
-140z m-1190 -527 l-4 -483 27 3 c21 2 27 -2 30 -20 2 -13 9 -23 16 -22 6 1
136 2 287 3 228 1 275 3 275 15 0 14 21 26 45 26 8 0 11 -7 8 -20 -6 -23 -3
-23 77 -20 30 1 60 7 66 13 6 7 19 48 28 92 10 44 26 109 36 145 11 36 22 83
25 105 3 22 13 65 21 95 9 30 27 104 39 163 12 59 25 110 28 113 2 3 56 1 118
-3 l113 -8 7 -30 c14 -57 28 -140 38 -225 5 -47 17 -121 26 -165 21 -110 24
-131 30 -200 4 -59 5 -60 32 -58 43 4 58 -4 43 -22 -11 -13 -1 -15 75 -15 l87
0 -6 28 c-3 15 -12 68 -21 117 -9 50 -20 106 -25 125 -5 19 -16 78 -25 130 -9
52 -23 129 -30 170 -7 41 -12 76 -11 78 2 1 16 -3 32 -8 23 -8 32 -20 42 -53
11 -42 87 -414 98 -485 9 -55 21 -72 53 -72 22 0 30 -6 35 -25 6 -24 10 -25
76 -25 65 0 70 2 70 21 0 30 33 193 41 199 3 3 12 49 19 103 8 54 18 97 24 97
6 0 48 -35 93 -78 72 -67 83 -82 86 -117 3 -22 11 -66 20 -98 8 -32 14 -61 13
-65 0 -4 14 -8 32 -10 20 -2 32 -9 32 -18 0 -9 11 -14 36 -14 44 0 62 -19 110
-117 51 -105 81 -279 66 -383 -12 -85 -50 -210 -63 -210 -5 0 -9 -5 -9 -12 0
-17 -77 -113 -140 -176 -53 -52 -189 -152 -208 -152 -5 0 -20 -8 -33 -18 -31
-24 -178 -82 -249 -99 -122 -28 -482 -8 -560 32 -14 7 -45 18 -70 25 -59 16
-184 75 -234 111 -21 16 -43 29 -49 29 -25 0 -428 366 -452 410 -8 14 -24 37
-37 52 -13 14 -32 39 -43 54 -35 49 -129 159 -140 163 -5 2 -22 17 -38 32 -15
16 -41 36 -57 46 -17 9 -30 20 -30 24 0 3 -37 30 -82 59 -46 30 -90 60 -98 67
-8 8 -51 31 -95 53 -44 22 -75 40 -70 40 13 0 56 32 104 78 19 17 38 32 42 32
15 0 106 203 123 272 32 133 15 253 -57 398 -22 47 -58 102 -79 123 -21 21
-38 43 -38 48 0 5 17 7 38 4 20 -3 66 -1 102 3 36 5 71 10 79 11 12 1 13 -72
10 -481z m2034 195 c4 -37 3 -43 -13 -43 -26 0 -28 7 -17 70 10 60 19 52 30
-27z m560 -549 c20 -23 37 -46 37 -51 0 -6 7 -16 15 -23 20 -16 75 -98 75
-111 0 -5 4 -9 9 -9 5 0 13 -10 16 -22 4 -13 17 -39 29 -58 35 -59 82 -183 97
-256 17 -90 19 -318 2 -335 -7 -7 -13 -29 -13 -49 -1 -45 -44 -131 -53 -106
-11 27 -24 10 -31 -38 -6 -36 -10 -43 -25 -39 -15 4 -19 -4 -26 -49 -5 -36 -9
-47 -14 -35 -4 10 -11 18 -15 18 -10 0 -36 -67 -36 -92 0 -9 -7 -20 -15 -23
-12 -4 -15 1 -13 22 2 19 -2 27 -12 27 -10 0 -18 -17 -25 -57 -5 -31 -14 -60
-19 -65 -5 -5 -7 -1 -3 10 8 22 -1 47 -18 47 -7 0 -15 -18 -19 -44 -4 -24 -15
-51 -25 -60 -16 -15 -17 -14 -13 14 7 51 -22 36 -42 -22 -24 -67 -33 -78 -28
-33 6 50 -13 43 -28 -11 -15 -51 -51 -91 -120 -132 -25 -14 -47 -29 -50 -32
-3 -3 -21 -13 -40 -22 -19 -9 -46 -24 -60 -32 -43 -26 -191 -87 -285 -118 -85
-29 -175 -61 -220 -79 -50 -20 -375 -94 -460 -104 -27 -3 -86 -13 -129 -22
-67 -13 -128 -15 -370 -9 -160 3 -308 9 -328 12 -33 5 -37 10 -43 45 -5 26
-12 39 -22 39 -12 0 -14 -8 -10 -35 3 -19 2 -35 -3 -35 -9 0 -15 18 -22 65 -2
11 -12 21 -22 23 -17 4 -18 -1 -14 -42 4 -36 2 -46 -9 -46 -8 0 -19 14 -24 30
-7 19 -18 30 -30 30 -22 0 -25 -20 -6 -39 10 -11 9 -13 -6 -7 -10 3 -22 6 -27
6 -5 0 -10 10 -12 22 -4 29 -28 35 -35 9 -7 -27 -26 -22 -33 9 -8 33 -30 38
-30 6 0 -20 -4 -24 -17 -19 -10 4 -23 14 -29 22 -10 12 -15 13 -27 3 -10 -9
-17 -10 -22 -2 -3 5 -17 7 -31 4 -21 -5 -24 -3 -24 20 0 31 -14 34 -32 7 -15
-21 -47 -13 -34 8 4 6 1 11 -8 11 -8 0 -18 -5 -22 -11 -7 -12 -40 -9 -159 14
-90 18 -151 34 -180 47 -11 5 -49 18 -85 30 -36 12 -81 32 -100 44 -19 12 -48
28 -65 36 -60 30 -182 129 -272 220 -72 74 -243 318 -243 348 0 7 -11 32 -24
55 -14 24 -30 73 -35 112 -6 39 -16 89 -22 112 -10 37 -9 45 10 69 34 43 26
71 -11 37 -30 -27 -20 3 12 35 17 17 30 38 30 47 0 18 -12 14 -49 -19 -13 -12
-20 -14 -16 -6 5 8 19 23 32 33 26 21 47 56 39 65 -3 3 -18 -5 -33 -19 -22
-20 -20 -15 10 28 39 54 37 80 -3 38 -13 -14 -27 -25 -31 -25 -8 0 38 46 76
78 15 13 12 32 -5 32 -5 0 -23 -12 -41 -27 l-32 -27 13 24 c7 14 33 46 57 72
53 54 50 82 -3 41 l-35 -26 11 25 c7 13 25 32 40 42 16 9 36 23 44 32 35 34
109 85 166 113 78 39 141 56 257 72 100 14 172 5 280 -33 29 -10 65 -18 81
-18 15 0 32 -4 38 -9 5 -5 36 -18 68 -30 33 -12 72 -31 87 -41 15 -11 30 -20
34 -20 17 0 191 -119 425 -292 64 -47 207 -191 274 -275 32 -40 61 -73 65 -73
3 0 34 -26 67 -58 73 -68 96 -88 148 -127 22 -17 51 -40 64 -52 14 -13 30 -23
35 -23 6 0 19 -8 30 -17 47 -43 251 -145 327 -164 30 -7 57 -16 60 -20 3 -4
43 -15 90 -25 121 -27 436 -27 530 0 36 10 67 21 70 24 3 4 30 16 60 26 30 10
62 24 70 31 8 6 34 19 57 30 23 10 50 26 59 36 10 11 22 19 27 19 16 0 117 80
176 140 29 30 72 83 96 117 23 35 45 60 49 55 4 -4 14 2 22 12 8 11 14 16 14
12 0 -5 6 -3 14 3 8 7 22 44 32 84 13 53 19 66 23 49 15 -59 37 -13 40 81 1
48 -14 65 -22 25 -2 -13 -3 4 -1 37 4 72 -17 221 -31 218 -5 -1 -13 -19 -16
-40 -6 -36 -6 -36 -8 -7 0 17 -10 66 -22 110 -34 128 -34 125 -14 118 15 -6
17 -3 13 17 -3 13 -9 33 -13 44 -4 12 1 9 11 -7 10 -16 22 -28 26 -28 12 0 10
34 -2 46 -6 6 -15 26 -20 45 l-9 34 29 -34 c43 -50 49 -29 12 39 -40 75 -41
90 -1 50 39 -39 48 -32 20 15 -27 46 -15 42 32 -11z m-16 -716 c-3 -8 -6 -5
-6 6 -1 11 2 17 5 13 3 -3 4 -12 1 -19z"/>
</g>
</svg>
